<?xml version="1.0" encoding="UTF-8"?>
<svg width="800" height="400" viewBox="0 0 800 400" xmlns="http://www.w3.org/2000/svg">
  <defs>
    <style>
      .title { font-family: Arial, sans-serif; font-size: 18px; font-weight: bold; text-anchor: middle; }
      .axis { font-family: Arial, sans-serif; font-size: 12px; }
      .grid { stroke: #e0e0e0; stroke-width: 1; }
      .axis-line { stroke: #333; stroke-width: 2; }
      .legend { font-family: Arial, sans-serif; font-size: 12px; }
    </style>
  </defs>
  
  <!-- 背景 -->
  <rect width="800" height="400" fill="#fafafa"/>
  
  <!-- 标题 -->
  <text x="400" y="25" class="title" fill="#333">AEO 效果趋势图</text>
  
  <!-- 网格 -->
  <g class="grid">
    <line x1="60" y1="40" x2="760" y2="40"/>
    <line x1="60" y1="100" x2="760" y2="100"/>
    <line x1="60" y1="160" x2="760" y2="160"/>
    <line x1="60" y1="220" x2="760" y2="220"/>
    <line x1="60" y1="280" x2="760" y2="280"/>
    <line x1="60" y1="340" x2="760" y2="340"/>
  </g>
  
  <!-- 坐标轴 -->
  <line x1="60" y1="40" x2="60" y2="340" class="axis-line"/>
  <line x1="60" y1="340" x2="760" y2="340" class="axis-line"/>
  
  <!-- Y轴标签 -->
  <g class="axis">
    <text x="50" y="44" text-anchor="end" fill="#666">87%</text>
    <text x="50" y="104" text-anchor="end" fill="#666">83%</text>
    <text x="50" y="164" text-anchor="end" fill="#666">78%</text>
    <text x="50" y="224" text-anchor="end" fill="#666">74%</text>
    <text x="50" y="284" text-anchor="end" fill="#666">70%</text>
    <text x="50" y="344" text-anchor="end" fill="#666">66%</text>
  </g>
  <!-- 数据集: 综合得分 -->
  <path d="M 60,136.89131254752192L 147.5,120.00634242291079L 235,91.5962121831293L 322.5,180.78158011620638L 410,104.79875915448793L 497.5,315.20661157024796L 585,135.86163551651302L 672.5,141.32232212248803L 760,67.27272727272737" fill="none" stroke="#2196F3" stroke-width="2.5" stroke-linejoin="round" stroke-linecap="round"/>
  <circle cx="60" cy="136.89131254752192" r="4" fill="#2196F3" stroke="white" stroke-width="2"/>
  <circle cx="147.5" cy="120.00634242291079" r="4" fill="#2196F3" stroke="white" stroke-width="2"/>
  <circle cx="235" cy="91.5962121831293" r="4" fill="#2196F3" stroke="white" stroke-width="2"/>
  <circle cx="322.5" cy="180.78158011620638" r="4" fill="#2196F3" stroke="white" stroke-width="2"/>
  <circle cx="410" cy="104.79875915448793" r="4" fill="#2196F3" stroke="white" stroke-width="2"/>
  <circle cx="497.5" cy="315.20661157024796" r="4" fill="#2196F3" stroke="white" stroke-width="2"/>
  <circle cx="585" cy="135.86163551651302" r="4" fill="#2196F3" stroke="white" stroke-width="2"/>
  <circle cx="672.5" cy="141.32232212248803" r="4" fill="#2196F3" stroke="white" stroke-width="2"/>
  <circle cx="760" cy="67.27272727272737" r="4" fill="#2196F3" stroke="white" stroke-width="2"/>
  
  <!-- X轴标签 -->
  <g class="axis">
    <text x="60" y="360" text-anchor="middle" fill="#666">2/21</text>
    <text x="235" y="360" text-anchor="middle" fill="#666">2/23</text>
    <text x="410" y="360" text-anchor="middle" fill="#666">2/24</text>
    <text x="585" y="360" text-anchor="middle" fill="#666">2/25</text>
    <text x="760" y="360" text-anchor="middle" fill="#666">2/26</text>
  </g>
  
  <!-- 图例 -->
  <g class="legend">
    <line x1="360" y1="380" x2="380" y2="380" stroke="#2196F3" stroke-width="3"/>
    <text x="385" y="384" fill="#333">综合得分</text>
  </g>
</svg>