<?xml version="1.0" encoding="UTF-8"?>
<svg width="900" height="660" viewBox="0 0 900 660" xmlns="http://www.w3.org/2000/svg" font-family="'PingFang SC','Microsoft YaHei',Arial,sans-serif">
  <!-- Background -->
  <rect width="900" height="660" fill="#F8FAFC" rx="12"/>
  
  <!-- Title bar -->
  <rect x="0" y="0" width="900" height="56" fill="#1E293B" rx="12"/>
  <rect x="0" y="44" width="900" height="12" fill="#1E293B"/>
  <text x="450" y="34" text-anchor="middle" font-size="20" font-weight="bold" fill="#F1F5F9">Day3 完备化路线图 · 先收尾再前进</text>

  <!-- Timeline header boxes -->
  <!-- AM1 block -->
  <rect x="30" y="66" width="415" height="32" fill="#3B82F6" rx="6"/>
  <text x="237" y="87" text-anchor="middle" font-size="13" font-weight="bold" fill="white">⏰ D3-AM1 · Day2收尾（07:30–10:30）</text>
  <!-- PM1 block -->
  <rect x="455" y="66" width="415" height="32" fill="#22C55E" rx="6"/>
  <text x="662" y="87" text-anchor="middle" font-size="13" font-weight="bold" fill="white">⏰ D3-PM1 · Cron重塑（10:30–13:00）</text>

  <!-- AM1 Tasks -->
  <!-- Gap-1 -->
  <rect x="30" y="106" width="200" height="84" fill="#DBEAFE" stroke="#3B82F6" stroke-width="1.5" rx="6"/>
  <text x="130" y="124" text-anchor="middle" font-size="12" font-weight="bold" fill="#1D4ED8">Gap-1: Cron止血</text>
  <text x="130" y="140" text-anchor="middle" font-size="10" fill="#374151">07:30 – 08:00 · 30min</text>
  <text x="40" y="158" font-size="11" fill="#374151">• 修复/禁用5个error Cron</text>
  <text x="40" y="174" font-size="11" fill="#374151">• 消除token白烧 + 告警噪声</text>
  <rect x="40" y="180" width="170" height="20" fill="#BFDBFE" rx="3"/>
  <text x="125" y="194" text-anchor="middle" font-size="11" font-weight="bold" fill="#1D4ED8">产出：0 error Cron</text>

  <!-- Gap-5 -->
  <rect x="242" y="106" width="200" height="84" fill="#DBEAFE" stroke="#3B82F6" stroke-width="1.5" rx="6"/>
  <text x="342" y="124" text-anchor="middle" font-size="12" font-weight="bold" fill="#1D4ED8">Gap-5: 统一test-runner</text>
  <text x="342" y="140" text-anchor="middle" font-size="10" fill="#374151">08:00 – 08:30 · 30min</text>
  <text x="252" y="158" font-size="11" fill="#374151">• run-all-tests.js 统一入口</text>
  <text x="252" y="174" font-size="11" fill="#374151">• 聚合已有测试套件</text>
  <rect x="252" y="180" width="170" height="20" fill="#BFDBFE" rx="3"/>
  <text x="337" y="194" text-anchor="middle" font-size="11" font-weight="bold" fill="#1D4ED8">产出：npm test 一键回归</text>

  <!-- Gap-3 + 凌霄阁 -->
  <rect x="30" y="200" width="415" height="70" fill="#EFF6FF" stroke="#3B82F6" stroke-width="1.5" rx="6"/>
  <text x="237" y="218" text-anchor="middle" font-size="12" font-weight="bold" fill="#1D4ED8">Gap-3: AEO评测Day2 + 凌霄阁裁决</text>
  <text x="237" y="234" text-anchor="middle" font-size="10" fill="#374151">08:30 – 10:30 · 2h</text>
  <text x="50" y="252" font-size="11" fill="#374151">• 韧性层/接口契约/事件管道通过AEO端到端质量评测</text>
  <text x="50" y="268" font-size="11" fill="#374151">• 凌霄阁v4.3裁决Day2 → 生成裁决记录 + 遗留项列表</text>

  <!-- PM1 Tasks -->
  <!-- Gap-2 -->
  <rect x="455" y="106" width="200" height="84" fill="#DCFCE7" stroke="#22C55E" stroke-width="1.5" rx="6"/>
  <text x="555" y="124" text-anchor="middle" font-size="12" font-weight="bold" fill="#14532D">Gap-2: Cron重塑</text>
  <text x="555" y="140" text-anchor="middle" font-size="10" fill="#374151">10:30 – 12:00 · 1.5h</text>
  <text x="465" y="158" font-size="11" fill="#374151">• auto-response-pipeline → L3</text>
  <text x="465" y="174" font-size="11" fill="#374151">• cras-b-user-insight 事件驱动化</text>
  <rect x="465" y="180" width="170" height="20" fill="#BBF7D0" rx="3"/>
  <text x="550" y="194" text-anchor="middle" font-size="11" font-weight="bold" fill="#14532D">产出：3个核心Cron重塑</text>

  <!-- Gap-4 -->
  <rect x="667" y="106" width="200" height="84" fill="#DCFCE7" stroke="#22C55E" stroke-width="1.5" rx="6"/>
  <text x="767" y="124" text-anchor="middle" font-size="12" font-weight="bold" fill="#14532D">Gap-4: 五层仪表盘</text>
  <text x="767" y="140" text-anchor="middle" font-size="10" fill="#374151">12:00 – 13:00 · 1h</text>
  <text x="677" y="158" font-size="11" fill="#374151">• 基于metrics.js封装日报</text>
  <text x="677" y="174" font-size="11" fill="#374151">• 意图/决策/执行/效果/健康</text>
  <rect x="677" y="180" width="170" height="20" fill="#BBF7D0" rx="3"/>
  <text x="762" y="194" text-anchor="middle" font-size="11" font-weight="bold" fill="#14532D">产出：运营仪表盘首版</text>

  <!-- PM2 block header -->
  <rect x="30" y="284" width="840" height="32" fill="#F59E0B" rx="6"/>
  <text x="450" y="305" text-anchor="middle" font-size="13" font-weight="bold" fill="white">⏰ D3-PM2 · L3生产化（14:00–18:00）</text>

  <!-- PM2 Tasks - 3 phases -->
  <rect x="30" y="326" width="260" height="90" fill="#FEF3C7" stroke="#F59E0B" stroke-width="1.5" rx="6"/>
  <text x="160" y="344" text-anchor="middle" font-size="12" font-weight="bold" fill="#92400E">L3 Pipeline 切生产</text>
  <text x="160" y="360" text-anchor="middle" font-size="10" fill="#374151">14:00 – 16:00 · 2h</text>
  <text x="44" y="378" font-size="11" fill="#374151">• shadow → active 模式切换</text>
  <text x="44" y="394" font-size="11" fill="#374151">• 接入真实ISC事件流</text>
  <text x="44" y="410" font-size="11" fill="#374151">• 验证真实事件处理记录</text>

  <rect x="304" y="326" width="260" height="90" fill="#FEF3C7" stroke="#F59E0B" stroke-width="1.5" rx="6"/>
  <text x="434" y="344" text-anchor="middle" font-size="12" font-weight="bold" fill="#92400E">E2E全链路验证</text>
  <text x="434" y="360" text-anchor="middle" font-size="10" fill="#374151">16:00 – 17:00 · 1h</text>
  <text x="318" y="378" font-size="11" fill="#374151">• ISC变更触发→L3→Dispatcher</text>
  <text x="318" y="394" font-size="11" fill="#374151">• →Handler执行→结果回传</text>
  <text x="318" y="410" font-size="11" fill="#374151">• 端到端日志闭环证明</text>

  <rect x="578" y="326" width="292" height="90" fill="#FEF3C7" stroke="#F59E0B" stroke-width="1.5" rx="6"/>
  <text x="724" y="344" text-anchor="middle" font-size="12" font-weight="bold" fill="#92400E">Day3 AEO + 凌霄阁裁决</text>
  <text x="724" y="360" text-anchor="middle" font-size="10" fill="#374151">17:00 – 18:00 · 1h</text>
  <text x="592" y="378" font-size="11" fill="#374151">• Day3交付物AEO评测</text>
  <text x="592" y="394" font-size="11" fill="#374151">• 凌霄阁裁决Day3</text>
  <text x="592" y="410" font-size="11" fill="#374151">• 生成最终裁决记录</text>

  <!-- Arrows between AM1 tasks -->
  <line x1="230" y1="148" x2="240" y2="148" stroke="#3B82F6" stroke-width="2" marker-end="url(#arrB)"/>
  
  <!-- Arrow AM1→PM1 -->
  <path d="M 237 270 L 237 284 L 450 284" fill="none" stroke="#6366F1" stroke-width="2" stroke-dasharray="5,3" marker-end="url(#arrI)"/>
  <text x="290" y="280" font-size="10" fill="#6366F1">Day2裁决通过</text>

  <!-- Flow arrows PM2 -->
  <line x1="290" y1="371" x2="302" y2="371" stroke="#F59E0B" stroke-width="2" marker-end="url(#arrO)"/>
  <line x1="564" y1="371" x2="576" y2="371" stroke="#F59E0B" stroke-width="2" marker-end="url(#arrO)"/>

  <!-- Acceptance Criteria -->
  <rect x="30" y="432" width="840" height="140" fill="#EFF6FF" stroke="#6366F1" stroke-width="1.5" rx="8"/>
  <text x="50" y="453" font-size="13" font-weight="bold" fill="#4338CA">Day3 验收标准（6项必须全绿）</text>
  
  <!-- Checkboxes grid -->
  <rect x="50" y="462" width="380" height="26" fill="#E0E7FF" rx="4"/>
  <text x="60" y="479" font-size="12" fill="#312E81">✅ 1. 0个error状态Cron</text>
  
  <rect x="460" y="462" width="390" height="26" fill="#E0E7FF" rx="4"/>
  <text x="470" y="479" font-size="12" fill="#312E81">✅ 2. AEO评测Day2通过 + 凌霄阁裁决Day2通过</text>
  
  <rect x="50" y="494" width="380" height="26" fill="#E0E7FF" rx="4"/>
  <text x="60" y="511" font-size="12" fill="#312E81">✅ 3. 3个核心Cron完成事件驱动化重塑</text>
  
  <rect x="460" y="494" width="390" height="26" fill="#E0E7FF" rx="4"/>
  <text x="470" y="511" font-size="12" fill="#312E81">✅ 4. Agent运营五层仪表盘首版输出</text>
  
  <rect x="50" y="526" width="380" height="26" fill="#E0E7FF" rx="4"/>
  <text x="60" y="543" font-size="12" fill="#312E81">✅ 5. L3 Pipeline处理至少1个真实事件E2E</text>
  
  <rect x="460" y="526" width="390" height="26" fill="#E0E7FF" rx="4"/>
  <text x="470" y="543" font-size="12" fill="#312E81">✅ 6. 统一test-runner一键回归通过</text>

  <!-- Risk note -->
  <rect x="50" y="558" width="800" height="24" fill="#FEE2E2" rx="4"/>
  <text x="450" y="575" text-anchor="middle" font-size="11" fill="#DC2626">⚠ 风险：凌霄阁裁决未通过 → 阻断PM2，优先消缺口；L3切生产失败 → 回退shadow模式，保持服务稳定</text>

  <!-- Waterfall progress bar at bottom -->
  <rect x="30" y="590" width="840" height="56" fill="#F1F5F9" stroke="#CBD5E1" stroke-width="1" rx="6"/>
  <text x="50" y="608" font-size="11" font-weight="bold" fill="#475569">进度甘特</text>
  
  <rect x="50" y="614" width="93" height="16" fill="#3B82F6" rx="3"/>
  <text x="96" y="626" text-anchor="middle" font-size="9" fill="white">Gap-1</text>
  
  <rect x="147" y="614" width="93" height="16" fill="#3B82F6" rx="3"/>
  <text x="193" y="626" text-anchor="middle" font-size="9" fill="white">Gap-5</text>

  <rect x="244" y="614" width="186" height="16" fill="#60A5FA" rx="3"/>
  <text x="337" y="626" text-anchor="middle" font-size="9" fill="white">Gap-3 AEO + 凌霄阁</text>

  <rect x="434" y="614" width="139" height="16" fill="#22C55E" rx="3"/>
  <text x="503" y="626" text-anchor="middle" font-size="9" fill="white">Gap-2 Cron重塑</text>

  <rect x="577" y="614" width="93" height="16" fill="#22C55E" rx="3"/>
  <text x="623" y="626" text-anchor="middle" font-size="9" fill="white">Gap-4 仪表盘</text>

  <rect x="674" y="614" width="93" height="16" fill="#F59E0B" rx="3"/>
  <text x="720" y="626" text-anchor="middle" font-size="9" fill="white">L3生产切换</text>

  <rect x="771" y="614" width="93" height="16" fill="#F59E0B" rx="3"/>
  <text x="817" y="626" text-anchor="middle" font-size="9" fill="white">E2E+裁决</text>

  <!-- Time labels -->
  <text x="50" y="642" font-size="9" fill="#6B7280">07:30</text>
  <text x="144" y="642" font-size="9" fill="#6B7280">08:00</text>
  <text x="244" y="642" font-size="9" fill="#6B7280">08:30</text>
  <text x="434" y="642" font-size="9" fill="#6B7280">10:30</text>
  <text x="577" y="642" font-size="9" fill="#6B7280">12:00</text>
  <text x="674" y="642" font-size="9" fill="#6B7280">14:00</text>
  <text x="771" y="642" font-size="9" fill="#6B7280">16:00</text>
  <text x="860" y="642" font-size="9" fill="#6B7280">18:00</text>

  <defs>
    <marker id="arrB" markerWidth="8" markerHeight="8" refX="6" refY="3" orient="auto">
      <path d="M0,0 L0,6 L8,3 z" fill="#3B82F6"/>
    </marker>
    <marker id="arrO" markerWidth="8" markerHeight="8" refX="6" refY="3" orient="auto">
      <path d="M0,0 L0,6 L8,3 z" fill="#F59E0B"/>
    </marker>
    <marker id="arrI" markerWidth="8" markerHeight="8" refX="6" refY="3" orient="auto">
      <path d="M0,0 L0,6 L8,3 z" fill="#6366F1"/>
    </marker>
  </defs>
</svg>
